{"title":"Love Child S03E01 1080P WEB-DL AAC2 0 H 264","uid":15024151,"size":1668605980,"categoryP":"video","categoryS":"hd___tv_shows","magnet":"?xt=urn:btih:745558540d4a1058c280eae564daaa38bed3fbd9&amp;dn=Love+Child+S03E01+1080P+WEB-DL+AAC2+0+H+264&amp;tr=udp%3A%2F%2Ftracker.leechers-paradise.org%3A6969&amp;tr=udp%3A%2F%2Fzer0day.ch%3A1337&amp;tr=udp%3A%2F%2Fopen.demonii.com%3A1337&amp;tr=udp%3A%2F%2Ftracker.coppersurfer.tk%3A6969&amp;tr=udp%3A%2F%2Fexodus.desync.com%3A6969","seeders":1,"leechers":0,"uploader":"jmanwf","files":1,"time":1466501632,"description":"Description\r\nJoan (Jessica Marais) is devastated to discover an infection has left her almost certainly infertile / Just one month on and times they are a-changing. Shirley (Ella Scott Lynch) is confronted with the return of her first child, and Matron (Mandy McElhinney) is determined to see the re-opening of Stanton House. Joan (Jessica Marais) struggles to have it all - husband, baby and career - and Annie (Gracie Gilbert) struggles to make ends meet. Patty's (Harriet Dyer) business is booming, whilst Viv (Sophie Hensser) is in desperate search of a connection... and Martha (Miranda Tapsell) is faced with a question that is hard to answer.\r\n\r\n\r\n\r\nVideo\r\nID : 2\r\nFormat : AVC\r\nFormat/Info : Advanced Video Codec\r\nFormat profile :   \r\nFormat settings, CABAC : Yes\r\nFormat settings, ReFrames : 4 frames\r\nCodec ID : V_MPEG4/ISO/AVC\r\nDuration : 43mn 30s\r\nBit rate : 4 987 Kbps\r\nWidth : 1 912 pixels\r\nHeight : 1 072 pixels\r\nDisplay aspect ratio : 16:9\r\nFrame rate mode : Constant\r\nFrame rate : 25.000 fps\r\nColor space : YUV\r\nChroma subsampling : 4:2:0\r\nBit depth : 8 bits\r\nScan type : Progressive\r\nBits/(Pixel*Frame) : 0.097\r\nStream size : 1.52 GiB (98%)\r\nLanguage : English\r\nDefault : Yes\r\nForced : No\r\nColor range : Limited\r\nColor primaries : BT.709\r\nTransfer characteristics : BT.709\r\nMatrix coefficients : BT.709\r\n\r\nAudio\r\nID : 1\r\nFormat : AAC\r\nFormat/Info : Advanced Audio Codec\r\nFormat profile : LC\r\nCodec ID : A_AAC\r\nDuration : 43mn 30s\r\nBit rate : 125 Kbps\r\nChannel(s) : 2 channels\r\nChannel positions : Front: L R\r\nSampling rate : 48.0 KHz\r\nFrame rate : 46.875 fps (1024 spf)\r\nCompression mode : Lossy\r\nStream size : 39.0 MiB (2%)\r\nLanguage : English\r\nDefault : Yes\r\nForced : No","torrent":{"xt":"urn:btih:745558540d4a1058c280eae564daaa38bed3fbd9","amp;dn":"Love+Child+S03E01+1080P+WEB-DL+AAC2+0+H+264","amp;tr":["udp%3A%2F%2Ftracker.leechers-paradise.org%3A6969","udp%3A%2F%2Fzer0day.ch%3A1337","udp%3A%2F%2Fopen.demonii.com%3A1337","udp%3A%2F%2Ftracker.coppersurfer.tk%3A6969","udp%3A%2F%2Fexodus.desync.com%3A6969"],"infoHash":"745558540d4a1058c280eae564daaa38bed3fbd9","infoHashBuffer":{"type":"Buffer","data":[116,85,88,84,13,74,16,88,194,128,234,229,100,218,170,56,190,211,251,217]},"announce":[],"urlList":[]}}